<?xml version="1.0" encoding="UTF-8" ?>
<!DOCTYPE svg PUBLIC "-//W3C//DTD SVG 1.1//EN" "http://www.w3.org/Graphics/SVG/1.1/DTD/svg11.dtd">
<svg width="192pt" height="192pt" viewBox="0 0 192 192" version="1.1" xmlns="http://www.w3.org/2000/svg">
<g id="#ffffffff">
<path fill="#ffffff" opacity="1.00" d=" M 0.00 0.00 L 192.00 0.00 L 192.00 192.00 L 0.00 192.00 L 0.00 0.00 M 32.83 22.21 C 32.84 25.22 32.83 28.24 32.80 31.25 C 74.81 31.21 116.82 31.21 158.83 31.25 C 158.82 28.22 158.83 25.19 158.89 22.16 C 116.87 22.29 74.85 22.20 32.83 22.21 M 32.98 42.31 C 32.73 64.53 32.98 86.76 32.85 108.99 C 32.91 110.96 32.44 113.31 34.25 114.68 C 53.39 133.79 72.64 152.79 91.67 172.01 C 92.12 158.56 91.83 145.08 91.82 131.62 C 89.03 131.60 86.23 131.59 83.43 131.57 C 83.20 137.59 83.43 143.62 83.27 149.65 C 81.77 148.52 80.35 147.29 79.04 145.95 C 67.01 133.68 54.56 121.82 42.65 109.45 C 42.23 90.22 42.43 70.91 42.56 51.66 C 55.96 51.69 69.36 51.70 82.76 51.65 C 83.13 57.86 82.53 64.10 83.16 70.30 C 86.01 70.20 88.89 70.50 91.72 70.08 C 92.12 60.83 91.76 51.56 91.89 42.30 C 72.26 42.39 52.62 42.37 32.98 42.31 M 99.39 42.33 C 99.40 60.77 99.43 79.22 99.37 97.66 C 116.33 97.70 133.29 97.61 150.24 97.71 C 150.29 101.21 150.28 104.70 150.29 108.20 C 136.55 122.22 122.62 136.07 108.66 149.87 C 108.51 143.81 108.86 137.74 108.44 131.70 C 105.36 131.75 102.27 131.76 99.19 131.73 C 98.87 145.41 99.07 159.10 99.08 172.78 C 119.19 153.04 138.94 132.92 158.97 113.09 C 159.09 104.82 159.08 96.56 158.97 88.30 C 142.27 88.35 125.58 88.32 108.89 88.31 C 109.12 76.08 108.38 63.79 109.28 51.59 C 122.82 51.70 136.38 51.75 149.92 51.56 C 150.75 57.76 150.05 64.06 150.28 70.30 C 153.16 70.28 156.04 70.28 158.93 70.30 C 159.13 60.96 159.07 51.62 158.96 42.29 C 139.10 42.37 119.24 42.30 99.39 42.33 Z" />
</g>
<g id="#1d50e1ff">
<path fill="#1d50e1" opacity="1.00" d=" M 32.83 22.21 C 74.85 22.20 116.87 22.29 158.89 22.16 C 158.83 25.19 158.82 28.22 158.83 31.25 C 116.82 31.21 74.81 31.21 32.80 31.25 C 32.83 28.24 32.84 25.22 32.83 22.21 Z" />
<path fill="#1d50e1" opacity="1.00" d=" M 32.98 42.31 C 52.62 42.37 72.26 42.39 91.89 42.30 C 91.76 51.56 92.12 60.83 91.72 70.08 C 88.89 70.50 86.01 70.20 83.16 70.30 C 82.53 64.10 83.13 57.86 82.76 51.65 C 69.36 51.70 55.96 51.69 42.56 51.66 C 42.43 70.91 42.23 90.22 42.65 109.45 C 54.56 121.82 67.01 133.68 79.04 145.95 C 80.35 147.29 81.77 148.52 83.27 149.65 C 83.43 143.62 83.20 137.59 83.43 131.57 C 86.23 131.59 89.03 131.60 91.82 131.62 C 91.83 145.08 92.12 158.56 91.67 172.01 C 72.64 152.79 53.39 133.79 34.25 114.68 C 32.44 113.31 32.91 110.96 32.85 108.99 C 32.98 86.76 32.73 64.53 32.98 42.31 Z" />
<path fill="#41bc3f" opacity="1.00" d=" M 99.39 42.33 C 119.24 42.30 139.10 42.37 158.96 42.29 C 159.07 51.62 159.13 60.96 158.93 70.30 C 156.04 70.28 153.16 70.28 150.28 70.30 C 150.05 64.06 150.75 57.76 149.92 51.56 C 136.38 51.75 122.82 51.70 109.28 51.59 C 108.38 63.79 109.12 76.08 108.89 88.31 C 125.58 88.32 142.27 88.35 158.97 88.30 C 159.08 96.56 159.09 104.82 158.97 113.09 C 138.94 132.92 119.19 153.04 99.08 172.78 C 99.07 159.10 98.87 145.41 99.19 131.73 C 102.27 131.76 105.36 131.75 108.44 131.70 C 108.86 137.74 108.51 143.81 108.66 149.87 C 122.62 136.07 136.55 122.22 150.29 108.20 C 150.28 104.70 150.29 101.21 150.24 97.71 C 133.29 97.61 116.33 97.70 99.37 97.66 C 99.43 79.22 99.40 60.77 99.39 42.33 Z" />
</g>
</svg>
